<svg width="44" height="44" viewBox="0 0 44 44" fill="none" xmlns="http://www.w3.org/2000/svg">
<g clip-path="url(#clip0_3_299)">
<path d="M6.71375 4.79559C6.205 4.79559 5.7171 4.99769 5.35736 5.35743C4.99763 5.71716 4.79553 6.20507 4.79553 6.71381V14.3867H14.3866V4.79559H6.71375ZM11.9888 11.9889H7.1933V7.19336H11.9888V11.9889Z" fill="white"/>
<path d="M4.79553 36.4461C4.79553 36.9549 4.99763 37.4428 5.35736 37.8025C5.7171 38.1623 6.205 38.3644 6.71375 38.3644H14.3866V28.7733H4.79553V36.4461ZM7.1933 31.1711H11.9888V35.9666H7.1933V31.1711Z" fill="white"/>
<path d="M28.7732 38.3644H36.446C36.9548 38.3644 37.4427 38.1623 37.8024 37.8025C38.1622 37.4428 38.3643 36.9549 38.3643 36.4461V28.7733H28.7732V38.3644ZM31.171 31.1711H35.9665V35.9666H31.171V31.1711Z" fill="white"/>
<path d="M36.446 4.79559H28.7732V14.3867H38.3643V6.71381C38.3643 6.20507 38.1622 5.71716 37.8024 5.35743C37.4427 4.99769 36.9548 4.79559 36.446 4.79559ZM35.9665 11.9889H31.171V7.19336H35.9665V11.9889Z" fill="white"/>
<path d="M23.9777 11.9889V9.59114H19.1821V14.3867H21.5799V11.9889H23.9777Z" fill="white"/>
<path d="M14.3866 14.3866H16.7844V16.7844H14.3866V14.3866Z" fill="white"/>
<path d="M16.7843 16.7844H21.5798V19.1822H16.7843V16.7844Z" fill="white"/>
<path d="M23.9776 7.19336V9.59113H26.3754V4.79559H16.7843V9.59113H19.1821V7.19336H23.9776Z" fill="white"/>
<path d="M4.79553 16.7844H7.1933V21.5799H4.79553V16.7844Z" fill="white"/>
<path d="M14.3866 19.1822V21.5799H11.9888V16.7844H9.59107V21.5799H7.1933V23.9777H4.79553V26.3755H9.59107V23.9777H11.9888V26.3755H14.3866V23.9777H16.7844V19.1822H14.3866Z" fill="white"/>
<path d="M23.9776 19.1821H26.3754V21.5799H28.7731V19.1821H31.1709V16.7844H26.3754V11.9888H23.9776V14.3866H21.5798V16.7844H23.9776V19.1821Z" fill="white"/>
<path d="M21.5798 35.9665H16.7843V38.3643H26.3754V35.9665H23.9776V33.5687H21.5798V35.9665Z" fill="white"/>
<path d="M26.3754 23.9777V21.5799H23.9777V19.1822H21.5799V21.5799H19.1821V23.9777H21.5799V26.3755H23.9777V23.9777H26.3754Z" fill="white"/>
<path d="M35.9666 23.9777H38.3643V26.3755H35.9666V23.9777Z" fill="white"/>
<path d="M26.3755 23.9777H33.5688V26.3755H26.3755V23.9777Z" fill="white"/>
<path d="M35.9664 16.7844H33.5687V19.1822H31.1709V21.5799H33.5687V23.9777H35.9664V21.5799H38.3642V19.1822H35.9664V16.7844Z" fill="white"/>
<path d="M23.9777 26.3755H26.3754V33.5688H23.9777V26.3755Z" fill="white"/>
<path d="M16.7843 33.5688H19.1821V31.171H21.5798V28.7733H19.1821V23.9777H16.7843V33.5688Z" fill="white"/>
</g>
<defs>
<clipPath id="clip0_3_299">
<rect width="43.1598" height="43.1598" fill="white"/>
</clipPath>
</defs>
</svg>
